# xmcd
# 
# Track frame offsets:
#     150
#     11245
#     23882
#     36933
#     57786
#     68426
#     82260
#     95587
#     109170
#     125971
#     135682
#     146192
#     159634
#     172282
#     204939
# 
# Disc length: 2927
# 
# Revision: 2
# Processed by: cddbd v1.5.2PL0 Copyright (c) Steve Scherf et al.
# Submitted via: fre:ac v1.0.17
# 
DISCID=e10b6d0f
DTITLE=Various Artist - Le coffret ideal BLUES – cd3
DYEAR=2012
DGENRE=Blues
TTITLE0=John Lee Hooker - Boom boom
TTITLE1=Willy May and Big Mama Thornton - Hound dog
TTITLE2=Sleepy John Estes - Jailhouse blues
TTITLE3=Dr. John - Loop garoo
TTITLE4=Fred Neil - Blues on the ceiling
TTITLE5=Arthur Big Boy Crudup - My mama don't allow me
TTITLE6=Sonny Boy Williamson - Better cut than out
TTITLE7=Big Joe Turner - Back breaking blues
TTITLE8=Billie Holiday - Lady sings the blues
TTITLE9=Buddy Guy - First time i met the blues
TTITLE10=Brownie McGhee and Sonny Terry - Stranger blues
TTITLE11=Jerry Roll Morton - Jelly roll blues
TTITLE12=Nat King Cole - You're nobody till somebody
TTITLE13=Brother Jack McDuff - Can't find the keyhole blues
TTITLE14=Muddy Waters - Baby please don't go
EXTD=
EXTT0=
EXTT1=
EXTT2=
EXTT3=
EXTT4=
EXTT5=
EXTT6=
EXTT7=
EXTT8=
EXTT9=
EXTT10=
EXTT11=
EXTT12=
EXTT13=
EXTT14=
PLAYORDER=
